<?xml version="1.0" encoding="UTF-8" standalone="no"?>
<!-- Created with Inkscape (http://www.inkscape.org/) -->

<svg
   xmlns:dc="http://purl.org/dc/elements/1.1/"
   xmlns:cc="http://creativecommons.org/ns#"
   xmlns:rdf="http://www.w3.org/1999/02/22-rdf-syntax-ns#"
   xmlns:svg="http://www.w3.org/2000/svg"
   xmlns="http://www.w3.org/2000/svg"
   xmlns:sodipodi="http://sodipodi.sourceforge.net/DTD/sodipodi-0.dtd"
   xmlns:inkscape="http://www.inkscape.org/namespaces/inkscape"
   width="64px"
   height="64px"
   viewBox="0 0 64 64"
   version="1.1"
   id="SVGRoot"
   inkscape:version="0.91 r13725"
   sodipodi:docname="SodarLogo.svg"
   inkscape:export-filename="/home/mnieminen/Documents/omics/figures/SodarLogo.png"
   inkscape:export-xdpi="1296.83"
   inkscape:export-ydpi="1296.83">
  <sodipodi:namedview
     id="base"
     pagecolor="#484848"
     bordercolor="#666666"
     borderopacity="1.0"
     inkscape:pageopacity="0"
     inkscape:pageshadow="2"
     inkscape:zoom="8"
     inkscape:cx="-8.851032"
     inkscape:cy="29.872494"
     inkscape:document-units="px"
     inkscape:current-layer="layer1"
     showgrid="false"
     inkscape:window-width="1871"
     inkscape:window-height="1176"
     inkscape:window-x="1969"
     inkscape:window-y="86"
     inkscape:window-maximized="1"
     inkscape:grid-bbox="true">
    <inkscape:grid
       type="xygrid"
       id="grid3704" />
  </sodipodi:namedview>
  <defs
     id="defs3688">
    <style
       id="style3706">.cls-1{fill:#70cbf6;}.cls-2{fill:#ff7575;}.cls-3{fill:#fff;}.cls-4{opacity:0.1;}.cls-5{fill:#171c1f;}</style>
    <marker
       refX="0"
       refY="0"
       orient="auto"
       id="Arrow2Mend"
       style="overflow:visible">
      <path
         inkscape:connector-curvature="0"
         d="M 8.7185878,4.0337352 -2.2072895,0.01601326 8.7185884,-4.0017078 c -1.7454984,2.3720609 -1.7354408,5.6174519 -6e-7,8.035443 z"
         transform="scale(-0.6)"
         id="path7194"
         style="font-size:12px;fill-rule:evenodd;stroke-width:0.625;stroke-linejoin:round" />
    </marker>
    <marker
       refX="0"
       refY="0"
       orient="auto"
       id="marker5044"
       style="overflow:visible">
      <path
         inkscape:connector-curvature="0"
         d="M 8.7185878,4.0337352 -2.2072895,0.01601326 8.7185884,-4.0017078 c -1.7454984,2.3720609 -1.7354408,5.6174519 -6e-7,8.035443 z"
         transform="scale(-0.6)"
         id="path5042"
         style="font-size:12px;fill-rule:evenodd;stroke-width:0.625;stroke-linejoin:round" />
    </marker>
    <clipPath
       clipPathUnits="userSpaceOnUse"
       id="clipPath5746">
      <path
         sodipodi:nodetypes="cccc"
         inkscape:connector-curvature="0"
         id="path5748"
         d="M 69.424382,45.339448 127.65626,70.635463 147.48087,36.298236 95.556819,0.07674031"
         style="fill:#000000;stroke:#000000;stroke-width:3.06380296;stroke-linecap:round;stroke-linejoin:round;stroke-miterlimit:4;stroke-dasharray:none;stroke-opacity:1" />
    </clipPath>
  </defs>
  <metadata
     id="metadata3691">
    <rdf:RDF>
      <cc:Work
         rdf:about="">
        <dc:format>image/svg+xml</dc:format>
        <dc:type
           rdf:resource="http://purl.org/dc/dcmitype/StillImage" />
        <dc:title />
      </cc:Work>
    </rdf:RDF>
  </metadata>
  <g
     inkscape:groupmode="layer"
     id="layer3"
     inkscape:label="Logo 1">
    <rect
       style="fill:#ffec73;fill-opacity:1;stroke:#ffec73;stroke-width:1.71008003;stroke-miterlimit:4;stroke-dasharray:none;stroke-opacity:1"
       id="rect4311"
       width="61.239819"
       height="61.239819"
       x="1.3800907"
       y="1.3800907"
       ry="5.1398239"
       inkscape:export-xdpi="1296.83"
       inkscape:export-ydpi="1296.83"
       rx="5.1398239" />
  </g>
  <g
     id="layer1"
     inkscape:groupmode="layer"
     inkscape:label="Logo"
     style="display:inline">
    <path
       style="fill:none;stroke:#333333;stroke-width:2.5;stroke-linecap:round;stroke-linejoin:round;stroke-miterlimit:4;stroke-dasharray:none;stroke-opacity:1"
       d="m 32,19.004851 0,-6 6,-8.0000001"
       id="path4564"
       inkscape:connector-curvature="0"
       sodipodi:nodetypes="ccc" />
    <path
       style="fill:#dc3545;fill-opacity:1;stroke:#333333;stroke-width:1.70000005;stroke-linecap:round;stroke-linejoin:round;stroke-miterlimit:4;stroke-dasharray:none;stroke-opacity:1"
       d="m 17.5,24.004851 4,35 22,0 3,-35"
       id="path4558"
       inkscape:connector-curvature="0"
       sodipodi:nodetypes="cccc" />
    <rect
       style="fill:#ffffff;stroke:#333333;stroke-width:1.70000005;stroke-linecap:round;stroke-linejoin:round;stroke-miterlimit:4;stroke-dasharray:none;stroke-opacity:1"
       id="rect3751"
       width="33"
       height="5"
       x="15.5"
       y="19.00485"
       ry="1" />
    <g
       id="g5482"
       transform="matrix(0.25892014,0.44846285,-0.44846285,0.25892014,20.825258,-17.700943)"
       clip-path="url(#clipPath5746)"
       style="fill:#ffffff">
      <path
         style="color:#000000;display:inline;overflow:visible;visibility:visible;fill:#ffffff;fill-opacity:1;fill-rule:nonzero;stroke:#000000;stroke-width:0.20464085;stroke-linecap:round;stroke-linejoin:miter;stroke-miterlimit:4;stroke-dasharray:none;stroke-dashoffset:0;stroke-opacity:1;marker:none"
         id="path4102-6"
         d="m 110.45494,29.62762 2.77224,0.46684 c 0,0 0.63631,-0.50123 0.63631,-0.97204 0,-0.47082 -0.38691,-0.80258 -0.38691,-0.80258 l -2.02402,-0.0544 -0.67787,0.32615 c 0.0156,-0.008 0.0354,0.0395 0.048,0.11831 0.0126,0.0788 0.0186,0.18912 0.006,0.30696 -0.0122,0.11784 -0.0437,0.24537 -0.10232,0.35492 -0.0293,0.0548 -0.0637,0.10326 -0.10872,0.14709 -0.045,0.0438 -0.0997,0.0817 -0.16306,0.10871 z"
         inkscape:connector-curvature="0" />
      <path
         style="color:#000000;display:inline;overflow:visible;visibility:visible;fill:#ffffff;fill-opacity:1;fill-rule:nonzero;stroke:#000000;stroke-width:0.20464085;stroke-linecap:round;stroke-linejoin:miter;stroke-miterlimit:4;stroke-dasharray:none;stroke-dashoffset:0;stroke-opacity:1;marker:none"
         id="path4100-5"
         d="m 110.45494,29.62762 c 0.0634,-0.027 0.11806,-0.0649 0.16307,-0.10871 0.045,-0.0438 0.0794,-0.0923 0.10871,-0.14709 0.0587,-0.10955 0.0901,-0.23708 0.10232,-0.35492 0.0122,-0.11784 0.006,-0.22815 -0.006,-0.30696 -0.0126,-0.0788 -0.0323,-0.12585 -0.048,-0.11831 l -1.6755,0.80897 1.35575,0.22702 z"
         inkscape:connector-curvature="0" />
      <path
         style="color:#000000;display:inline;overflow:visible;visibility:visible;fill:#ffffff;fill-opacity:1;fill-rule:nonzero;stroke:#000000;stroke-width:0.20464085;stroke-linecap:round;stroke-linejoin:round;stroke-miterlimit:4;stroke-dasharray:none;stroke-dashoffset:0;stroke-opacity:1;marker:none"
         id="path1933-9-0"
         d="m 102.619,-10.14773 c 0,0 -4.92971,3.76651 -2.54794,7.47764 2.38178,3.71113 3.82191,5.76056 13.07204,10.69027 9.25012,4.92971 9.25012,4.92971 9.25012,4.92971 0,0 2.16022,0.77546 2.21561,2.65872 0.0554,1.88326 -0.11079,2.49255 0,3.37879 0.11078,0.88624 -0.16617,2.04943 -1.60631,3.3234 -1.44014,1.27397 -10.69027,5.81595 -10.69027,5.81595 0,0 -11.13339,4.4312 -12.90587,8.08694 0,0 -0.15175,0.24027 -0.15313,0.62414 -0.002,0.41951 0.17657,1.01052 0.92859,1.64685 1.44014,1.21858 14.9553,9.19474 14.9553,9.19474 l 6.53602,3.71113 c 0,0 2.88028,1.1078 2.99105,3.26801 0,0 -0.0159,0.35235 -0.13345,0.74401 -0.1175,0.39167 -0.1175,1.7625 0,2.15417 0.1175,0.39166 0.27416,1.41 -0.31333,2.03666 -0.5875,0.62667 -2.50666,2.42833 -4.26916,3.29 -1.7625,0.86167 -15.77927,7.54937 -15.77927,7.54937 0,0 -4.25937,3.4026 -4.77833,4.42583 0,0 0.50428,1.77229 1.67927,2.67312 1.175,0.90084 6.9325,3.68167 6.9325,3.68167 0,0 0.86166,0.43083 0.3525,0.90083 l -3.055,2.115 c 0,0 -0.5875,0.54833 -1.5275,0.0392 -0.94,-0.50917 -6.50166,-4.25938 -6.50166,-6.84437 0,-1.67927 0.38188,-2.13459 0.38188,-2.13459 0,0 -0.42104,-1.47854 -0.42104,-2.49687 0,-1.01833 1.13583,-2.9375 2.27166,-3.95583 0.61205,-0.54873 2.43064,-1.75462 4.36938,-2.92301 1.65919,-0.99992 3.40637,-1.97238 4.56061,-2.48199 2.50255,-1.1049 11.60043,-5.84249 13.24503,-6.62479 0,0 -1.0642,-1.8352 -5.21586,-3.9502 -4.15167,-2.115 -7.32417,-3.91666 -7.32417,-3.91666 0,0 -11.74636,-5.56171 -11.78916,-8.85166 -0.0392,-3.00115 0.0783,-3.1725 0.0783,-3.1725 0,0 -0.27417,-1.95833 -0.27417,-2.50667 0,-0.54833 0.86166,-3.09416 3.995,-5.44416 3.13333,-2.35 13.12082,-6.81499 13.12082,-6.81499 0,0 7.01083,-3.525 7.95083,-4.465 0,0 -0.86167,-1.68417 -10.41832,-6.14916 C 102.2449,7.07097 99.3074,2.76264 98.56324,0.53014 c -0.74417,-2.2325 -0.66583,-4.77833 -0.66583,-4.77833 0,0 -0.27417,-5.56166 1.48833,-7.91166 0,0 0.57771,-0.74416 1.09666,-0.1175 0.33609,0.40584 1.44916,2.115 2.13656,2.12965 z"
         inkscape:connector-curvature="0" />
      <path
         style="color:#000000;display:inline;overflow:visible;visibility:visible;fill:#ffffff;fill-opacity:1;fill-rule:nonzero;stroke:#000000;stroke-width:0.20464085;stroke-linecap:round;stroke-linejoin:miter;stroke-miterlimit:4;stroke-dasharray:none;stroke-dashoffset:0;stroke-opacity:1;marker:none"
         id="path1935-2-2"
         d="m 120.41827,-6.16738 c 0,0 0.43083,-1.68417 1.99749,-1.175 1.56666,0.50916 2.66333,1.645 2.66333,2.15416 0,0.50917 -0.47,1.09667 -0.43083,1.95833 0.0392,0.86167 0.47,1.44917 0.47,1.91917 0,0.47 -0.27417,1.175 -1.37084,1.7625 -1.09666,0.5875 -13.31665,5.60083 -18.32998,9.20416 -5.01332,3.60333 -6.20792,6.44291 -6.20792,6.44291 0,0 1.31209,4.05375 7.53959,7.50041 6.22749,3.44667 13.47332,7.59833 14.02165,8.06833 0.54833,0.47 3.72083,2.07583 3.68166,3.525 -0.0392,1.44916 -0.23499,1.88 0,2.7025 0.23501,0.82249 0.23501,1.84083 -1.01832,3.21166 -1.25333,1.37083 -3.95583,3.13333 -11.75,6.42333 -7.79415,3.29 -11.39749,6.18833 -12.41582,8.26416 0,0 0.1175,1.72333 2.78083,3.21166 2.66333,1.48834 14.56999,8.53833 14.56999,8.53833 l 4.89583,3.055 c 0,0 3.25083,1.09666 3.28999,3.01583 0.0392,1.91917 -0.39166,1.645 -0.27416,2.50666 0.1175,0.86167 0.235,2.62417 -0.50917,3.525 -0.74417,0.90083 -3.17249,3.09417 -7.51999,4.7 0,0 -0.8225,0.43083 -1.21416,-0.0392 -0.51691,-0.62029 -1.41001,-2.62416 -1.41001,-2.62416 0,0 -0.27417,-0.86167 0.58751,-1.25333 0.86166,-0.39167 7.04999,-3.56417 7.63749,-4.15167 0,0 -3.29,-3.29 -6.4625,-4.8175 -3.17249,-1.52749 -11.35832,-6.32541 -11.35832,-6.32541 0,0 -8.38166,-3.03541 -6.81499,-8.75374 0,0 -0.31334,-1.91917 -0.27417,-3.09417 0.0392,-1.175 1.9975,-3.75999 4.935,-5.75749 2.93749,-1.9975 9.28248,-4.935 9.28248,-4.935 0,0 9.71333,-4.62166 9.94833,-4.89583 0,0 -0.62666,-2.19333 -6.97166,-5.24833 -6.34499,-3.055 -12.49415,-6.54083 -14.41333,-8.77332 -1.91916,-2.2325 -2.85916,-3.48584 -2.27165,-6.6975 0,0 0.0392,-1.80167 -0.0392,-2.85917 -0.0783,-1.05749 0.35249,-3.44666 1.68416,-4.85666 1.33167,-1.41 5.09166,-4.46499 6.85416,-5.44416 1.7625,-0.97917 11.43666,-5.56166 11.43666,-5.56166 l 2.29698,-0.75564 z"
         inkscape:connector-curvature="0" />
      <path
         style="color:#000000;display:inline;overflow:visible;visibility:visible;fill:#ffffff;fill-opacity:1;fill-rule:nonzero;stroke:none;stroke-width:0.20464085;marker:none"
         id="path4689-7-8"
         d="m 101.14828,28.96509 c 3.13333,-2.35 13.12082,-6.81499 13.12082,-6.81499 l 1.56326,4.27511 m 0.0794,-0.10719 c -1.985,1.01599 -3.59947,1.80873 -3.59947,1.80873 0,0 -2.34402,0.93294 -5.0522,2.29584 l -6.02336,-1.42168"
         inkscape:connector-curvature="0" />
      <path
         style="color:#000000;display:inline;overflow:visible;visibility:visible;fill:#ffffff;fill-opacity:1;fill-rule:nonzero;stroke:none;stroke-width:0.20464085;marker:none"
         id="path12680-9-6"
         d="m 107.37787,68.90115 c 2.05481,-0.98105 4.77656,-2.28103 7.17768,-3.42953 m -7.20156,3.45273 -3.48132,-3.01063 c 1.65918,-0.99992 3.40636,-1.97238 4.5606,-2.48199 0.36668,-0.16189 0.87494,-0.40176 1.53574,-0.68423 l 4.62915,2.79623"
         inkscape:connector-curvature="0" />
      <path
         style="color:#000000;display:inline;overflow:visible;visibility:visible;fill:#ffffff;stroke:#000000;stroke-width:0.20464085;stroke-linecap:round;stroke-linejoin:miter;stroke-miterlimit:4;stroke-dasharray:none;stroke-dashoffset:0;stroke-opacity:1;marker:none"
         id="path1967-4-0"
         d="m 97.47151,56.37684 c 0,0 0.54343,-1.83593 2.97177,-3.83343"
         inkscape:connector-curvature="0" />
      <path
         style="color:#000000;display:inline;overflow:visible;visibility:visible;fill:#ffffff;stroke:#000000;stroke-width:0.20464085;stroke-linecap:round;stroke-linejoin:miter;stroke-miterlimit:4;stroke-dasharray:none;stroke-dashoffset:0;stroke-opacity:1;marker:none"
         id="path1969-3-2"
         d="m 99.29276,55.74039 c 0,0 -3.47115,3.53968 2.67801,7.80884"
         inkscape:connector-curvature="0" />
      <path
         style="color:#000000;display:inline;overflow:visible;visibility:visible;fill:#ffffff;stroke:#000000;stroke-width:0.20464085;stroke-linecap:round;stroke-linejoin:miter;stroke-miterlimit:4;stroke-dasharray:none;stroke-dashoffset:0;stroke-opacity:1;marker:none"
         id="path1975-3-4"
         d="m 122.06269,76.31993 c 0,0 2.79782,-3.01698 -0.52937,-5.71833"
         inkscape:connector-curvature="0" />
      <path
         style="color:#000000;display:inline;overflow:visible;visibility:visible;fill:#ffffff;stroke:#000000;stroke-width:0.20464085;stroke-linecap:round;stroke-linejoin:miter;stroke-miterlimit:4;stroke-dasharray:none;stroke-dashoffset:0;stroke-opacity:1;marker:none"
         id="path1971-3-8"
         d="m 97.65266,75.28943 c 0,0 1.06729,-2.14437 3.02562,-3.59354"
         inkscape:connector-curvature="0" />
      <path
         style="color:#000000;display:inline;overflow:visible;visibility:visible;fill:#ffffff;stroke:#000000;stroke-width:0.20464085;stroke-linecap:round;stroke-linejoin:miter;stroke-miterlimit:4;stroke-dasharray:none;stroke-dashoffset:0;stroke-opacity:1;marker:none"
         id="path1973-4-6"
         d="m 99.39067,74.8537 c 0,0 -3.36343,3.73552 2.61927,7.76969"
         inkscape:connector-curvature="0" />
      <path
         style="color:#000000;display:inline;overflow:visible;visibility:visible;fill:#ffffff;stroke:#000000;stroke-width:0.20464085;stroke-linecap:round;stroke-linejoin:miter;stroke-miterlimit:4;stroke-dasharray:none;stroke-dashoffset:0;stroke-opacity:1;marker:none"
         id="path1963-1-5"
         d="m 101.03078,32.92092 c 0,0 -3.36393,2.75146 -3.60382,3.995"
         inkscape:connector-curvature="0" />
      <path
         style="color:#000000;display:inline;overflow:visible;visibility:visible;fill:#ffffff;stroke:#000000;stroke-width:0.20464085;stroke-linecap:round;stroke-linejoin:miter;stroke-miterlimit:4;stroke-dasharray:none;stroke-dashoffset:0;stroke-opacity:1;marker:none"
         id="path1965-1-0"
         d="m 99.30744,36.48509 c 0,0 -3.525,4.03416 2.7025,7.79416"
         inkscape:connector-curvature="0" />
      <path
         style="color:#000000;display:inline;overflow:visible;visibility:visible;fill:#ffffff;stroke:#000000;stroke-width:0.20464085;stroke-linecap:round;stroke-linejoin:miter;stroke-miterlimit:4;stroke-dasharray:none;stroke-dashoffset:0;stroke-opacity:1;marker:none"
         id="path1959-8-9"
         d="m 97.70162,17.01927 c 0,0 0.78333,-3.72083 6.77582,-7.36333"
         inkscape:connector-curvature="0" />
      <path
         style="color:#000000;display:inline;overflow:visible;visibility:visible;fill:#ffffff;stroke:#000000;stroke-width:0.20464085;stroke-linecap:round;stroke-linejoin:miter;stroke-miterlimit:4;stroke-dasharray:none;stroke-dashoffset:0;stroke-opacity:1;marker:none"
         id="path1961-7-0"
         d="m 99.22911,16.07927 c 0,0 -2.97667,5.79666 5.01333,10.26166"
         inkscape:connector-curvature="0" />
      <path
         style="color:#000000;display:inline;overflow:visible;visibility:visible;fill:#ffffff;stroke:#000000;stroke-width:0.20464085;stroke-linecap:round;stroke-linejoin:miter;stroke-miterlimit:4;stroke-dasharray:none;stroke-dashoffset:0;stroke-opacity:1;marker:none"
         id="path1981-4-0"
         d="m 121.82826,18.89926 c 0,0 2.94659,-1.13583 2.75076,-3.60333"
         inkscape:connector-curvature="0" />
      <path
         style="color:#000000;display:inline;overflow:visible;visibility:visible;fill:#ffffff;stroke:#000000;stroke-width:0.20464085;stroke-linecap:round;stroke-linejoin:miter;stroke-miterlimit:4;stroke-dasharray:none;stroke-dashoffset:0;stroke-opacity:1;marker:none"
         id="path1983-2-6"
         d="m 122.18077,17.72427 c 0,0 2.47896,-3.46506 -0.34104,-5.0709"
         inkscape:connector-curvature="0" />
      <path
         style="color:#000000;display:inline;overflow:visible;visibility:visible;fill:#ffffff;stroke:#000000;stroke-width:0.20464085;stroke-linecap:round;stroke-linejoin:miter;stroke-miterlimit:4;stroke-dasharray:none;stroke-dashoffset:0;stroke-opacity:1;marker:none"
         id="path1955-7-1"
         d="m 97.91703,-3.24947 c 0,0 0.0979,-4.05375 3.15291,-6.59958"
         inkscape:connector-curvature="0" />
      <path
         style="color:#000000;display:inline;overflow:visible;visibility:visible;fill:#ffffff;stroke:#000000;stroke-width:0.20464085;stroke-linecap:round;stroke-linejoin:miter;stroke-miterlimit:4;stroke-dasharray:none;stroke-dashoffset:0;stroke-opacity:1;marker:none"
         id="path1957-7-3"
         d="m 119.9091,-2.48572 c 0,0 3.99103,-1.84101 4.03416,-2.74166 0.0392,-0.81775 -0.15667,-0.90084 -0.15667,-0.90084"
         inkscape:connector-curvature="0" />
      <path
         style="color:#000000;display:inline;overflow:visible;visibility:visible;fill:#ffffff;stroke:#000000;stroke-width:0.20464085;stroke-linecap:round;stroke-linejoin:miter;stroke-miterlimit:4;stroke-dasharray:none;stroke-dashoffset:0;stroke-opacity:1;marker:none"
         id="path1979-9-8"
         d="m 121.33002,37.73766 c 0,0 3.90168,-2.61022 -0.12842,-5.77513"
         inkscape:connector-curvature="0" />
      <path
         style="color:#000000;display:inline;overflow:visible;visibility:visible;fill:#ffffff;fill-opacity:1;fill-rule:nonzero;stroke:#000000;stroke-width:0.20464085;stroke-linecap:round;stroke-linejoin:miter;stroke-miterlimit:4;stroke-dasharray:none;stroke-dashoffset:0;stroke-opacity:1;marker:none"
         id="path4687-5-4"
         d="m 101.14828,28.96509 c 3.13333,-2.35 13.12082,-6.81499 13.12082,-6.81499 m 1.64262,4.16792 c -1.985,1.01599 -3.59947,1.80873 -3.59947,1.80873 0,0 -2.34402,0.93294 -5.0522,2.29584"
         inkscape:connector-curvature="0" />
      <path
         style="color:#000000;display:inline;overflow:visible;visibility:visible;fill:#ffffff;stroke:#000000;stroke-width:0.20464085;stroke-linecap:round;stroke-linejoin:miter;stroke-miterlimit:4;stroke-dasharray:none;stroke-dashoffset:0;stroke-opacity:1;marker:none"
         id="path1977-1-5"
         d="m 121.65516,56.78682 c 0,0 3.92855,-3.07425 -1.20228,-6.09008"
         inkscape:connector-curvature="0" />
      <path
         style="color:#000000;display:inline;overflow:visible;visibility:visible;fill:#ffffff;fill-opacity:1;fill-rule:nonzero;stroke:#000000;stroke-width:0.20464085;stroke-linecap:round;stroke-linejoin:miter;stroke-miterlimit:4;stroke-dasharray:none;stroke-dashoffset:0;stroke-opacity:1;marker:none"
         id="path6470-9-9"
         d="m 121.58807,56.84719 c 0,0 0.36197,-0.2398 0.71721,-0.72876 l 0,0 -1.45566,0.0481"
         inkscape:connector-curvature="0" />
      <path
         style="color:#000000;display:inline;overflow:visible;visibility:visible;fill:#ffffff;fill-opacity:1;fill-rule:nonzero;stroke:#000000;stroke-width:0.20464085;stroke-linecap:butt;stroke-linejoin:miter;stroke-miterlimit:4;stroke-dasharray:none;stroke-dashoffset:0;stroke-opacity:1;marker:none"
         id="path7362-2-3"
         d="m 101.58203,56.00881 -2.49302,-0.0206 c -0.20206,0.27388 -0.50398,0.76446 -0.6639,1.41983 0.98901,0.0314 1.97809,0.0624 2.96721,0.0928"
         inkscape:connector-curvature="0" />
      <path
         style="color:#000000;display:inline;overflow:visible;visibility:visible;fill:#ffffff;stroke:#000000;stroke-width:0.20464085;stroke-linecap:round;stroke-linejoin:round;stroke-miterlimit:4;stroke-dasharray:none;stroke-dashoffset:0;stroke-opacity:1;marker:none"
         id="path11793-8-9"
         d="m 109.96901,62.71396 c -0.6608,0.28247 -1.16906,0.55588 -1.53574,0.71777 -1.15424,0.50961 -2.90142,1.48207 -4.5606,2.48199 m 3.5052,2.98743 c 2.05481,-0.98105 4.77656,-2.28103 7.17768,-3.42953"
         inkscape:connector-curvature="0" />
      <g
         id="g5416"
         style="fill:#ffffff">
        <path
           inkscape:connector-curvature="0"
           d="m 110.56684,33.99223 0,-0.003 1.12234,-0.94966 -1.14792,-1.00402 -5.8994,-0.33575 c -0.69237,0.0277 -2.79783,1.82898 -2.79783,1.82898 z"
           id="path4096-2"
           style="color:#000000;display:inline;overflow:visible;visibility:visible;fill:#ffffff;fill-opacity:1;fill-rule:nonzero;stroke:#000000;stroke-width:0.20464085;stroke-linecap:round;stroke-linejoin:miter;stroke-miterlimit:4;stroke-dasharray:none;stroke-dashoffset:0;stroke-opacity:1;marker:none" />
        <path
           inkscape:connector-curvature="0"
           d="m 110.52847,72.43273 c -0.0995,-0.0685 -0.18241,-0.14254 -0.2494,-0.22062 -0.067,-0.0781 -0.11861,-0.15864 -0.15667,-0.24301 -0.0381,-0.0844 -0.0608,-0.17169 -0.0735,-0.259 -0.0127,-0.0873 -0.0155,-0.17528 -0.006,-0.2622 0.009,-0.0869 0.0302,-0.17262 0.0576,-0.2558 0.0274,-0.0832 0.0603,-0.1637 0.10232,-0.23981 0.0841,-0.15222 0.19498,-0.28623 0.31656,-0.3901 l -6.23836,-0.39329 -2.38214,1.77142 8.63009,0.49241 z"
           id="path4064-7"
           style="color:#000000;display:inline;overflow:visible;visibility:visible;fill:#ffffff;fill-opacity:1;fill-rule:nonzero;stroke:#000000;stroke-width:0.20464085;stroke-linecap:round;stroke-linejoin:miter;stroke-miterlimit:4;stroke-dasharray:none;stroke-dashoffset:0;stroke-opacity:1;marker:none" />
        <path
           inkscape:connector-curvature="0"
           d="m 110.52847,81.51687 3.75069,0.0895 1.71706,-1.8002 -5.47733,-0.0416 c -0.0936,0.0547 -0.17599,0.11822 -0.24622,0.18866 -0.0702,0.0704 -0.12908,0.14614 -0.17585,0.22702 -0.0468,0.0809 -0.0822,0.16653 -0.10553,0.2526 -0.0233,0.0861 -0.0322,0.173 -0.032,0.259 0,0.086 0.0113,0.17194 0.0352,0.25261 0.0238,0.0807 0.0581,0.15695 0.10551,0.22702 0.0475,0.0701 0.10795,0.13124 0.17906,0.18545 0.0711,0.0542 0.15458,0.1012 0.2494,0.1343 z"
           id="path4058-6"
           style="color:#000000;display:inline;overflow:visible;visibility:visible;fill:#ffffff;fill-opacity:1;fill-rule:nonzero;stroke:#000000;stroke-width:0.20464085;stroke-linecap:round;stroke-linejoin:miter;stroke-miterlimit:4;stroke-dasharray:none;stroke-dashoffset:0;stroke-opacity:1;marker:none" />
        <path
           inkscape:connector-curvature="0"
           d="m 110.52847,62.28383 1.72986,0.0192 2.27024,-1.60835 -3.9841,-0.0671 c -0.0562,0.0426 -0.10881,0.0953 -0.15348,0.15348 -0.0447,0.0582 -0.0831,0.12229 -0.11511,0.19185 -0.0641,0.13911 -0.10155,0.29724 -0.10872,0.45724 -0.004,0.08 0,0.16077 0.0128,0.23982 0.0123,0.079 0.0347,0.15624 0.0639,0.23022 0.0293,0.074 0.0646,0.14304 0.11191,0.20783 0.0473,0.0648 0.10616,0.12438 0.17266,0.17587 z"
           id="path4074-4"
           style="color:#000000;display:inline;overflow:visible;visibility:visible;fill:#ffffff;fill-opacity:1;fill-rule:nonzero;stroke:#000000;stroke-width:0.20464085;stroke-linecap:round;stroke-linejoin:miter;stroke-miterlimit:4;stroke-dasharray:none;stroke-dashoffset:0;stroke-opacity:1;marker:none" />
        <path
           inkscape:connector-curvature="0"
           d="m 110.51568,42.93248 2.01764,-0.016 1.69148,-1.49644 -3.69633,-0.0384 c -0.10006,0.0742 -0.19818,0.17669 -0.27498,0.29737 -0.0768,0.12068 -0.13142,0.25848 -0.15348,0.40289 -0.011,0.0722 -0.0149,0.14676 -0.006,0.22063 0.009,0.0739 0.0287,0.14794 0.0608,0.22063 0.0321,0.0727 0.078,0.14238 0.13749,0.21103 0.0595,0.0687 0.1329,0.13647 0.22383,0.19825 z"
           id="path4090-4"
           style="color:#000000;display:inline;overflow:visible;visibility:visible;fill:#ffffff;fill-opacity:1;fill-rule:nonzero;stroke:#000000;stroke-width:0.20464085;stroke-linecap:round;stroke-linejoin:miter;stroke-miterlimit:4;stroke-dasharray:none;stroke-dashoffset:0;stroke-opacity:1;marker:none" />
        <path
           inkscape:connector-curvature="0"
           d="m 110.52847,20.28449 4.17916,-0.0767 4.66837,-0.0863 2.40772,-1.88334 -11.26804,0.34853 c 0.0844,0.0598 0.15912,0.12554 0.22383,0.19185 0.0647,0.0663 0.11862,0.13358 0.16308,0.20464 0.0445,0.0711 0.0787,0.14337 0.10232,0.21743 0.0236,0.0741 0.0362,0.15171 0.0384,0.22703 0.002,0.0753 -0.006,0.14899 -0.0256,0.22382 -0.0199,0.0748 -0.0501,0.15124 -0.0927,0.22383 -0.0426,0.0726 -0.0972,0.14243 -0.16307,0.21104 -0.0659,0.0686 -0.14365,0.13537 -0.23343,0.19824 z"
           id="path4110-3"
           style="color:#000000;display:inline;overflow:visible;visibility:visible;fill:#ffffff;fill-opacity:1;fill-rule:nonzero;stroke:#000000;stroke-width:0.20464085;stroke-linecap:round;stroke-linejoin:miter;stroke-miterlimit:4;stroke-dasharray:none;stroke-dashoffset:0;stroke-opacity:1;marker:none" />
        <path
           inkscape:connector-curvature="0"
           d="m 110.53487,1.80606 c 0.40085,-0.08 1.47406,-0.29417 1.47406,-0.29417 l 3.90416,-2.29901 -5.37502,1.01041 c -0.1072,0.10194 -0.20724,0.20843 -0.28458,0.32295 -0.0773,0.11453 -0.13436,0.2377 -0.15348,0.36772 -0.01,0.065 -0.0103,0.13202 0,0.20144 0.0103,0.0694 0.0334,0.14003 0.0671,0.21423 0.0337,0.0742 0.08,0.15088 0.14069,0.23022 0.0607,0.0793 0.1358,0.16137 0.22702,0.24621 z"
           id="path4126-9"
           style="color:#000000;display:inline;overflow:visible;visibility:visible;fill:#ffffff;fill-opacity:1;fill-rule:nonzero;stroke:#000000;stroke-width:0.20464085;stroke-linecap:round;stroke-linejoin:miter;stroke-miterlimit:4;stroke-dasharray:none;stroke-dashoffset:0;stroke-opacity:1;marker:none" />
        <path
           inkscape:connector-curvature="0"
           d="m 110.48052,57.74656 c 3.08491,0.0855 6.16874,0.18523 9.2536,0.26219 0.60929,0 2.74347,-1.82578 2.74347,-1.82578 l -11.9587,-0.0991 -0.93688,0.86653 z"
           id="path4078-7"
           style="color:#000000;display:inline;overflow:visible;visibility:visible;fill:#ffffff;fill-opacity:1;fill-rule:nonzero;stroke:#000000;stroke-width:0.20464085;stroke-linecap:round;stroke-linejoin:miter;stroke-miterlimit:4;stroke-dasharray:none;stroke-dashoffset:0;stroke-opacity:1;marker:none" />
        <path
           inkscape:connector-curvature="0"
           d="m 110.51568,48.86067 c 0.0922,-0.0483 0.17101,-0.0985 0.23662,-0.15029 0.0656,-0.0518 0.11683,-0.10547 0.15988,-0.15987 0.0861,-0.1088 0.13061,-0.22189 0.15028,-0.33574 0.0197,-0.11385 0.015,-0.22713 0,-0.33894 -0.015,-0.11181 -0.0397,-0.22027 -0.0575,-0.32295 l -2.07199,1.01362 z"
           id="path4084-6"
           style="color:#000000;display:inline;overflow:visible;visibility:visible;fill:#ffffff;fill-opacity:1;fill-rule:nonzero;stroke:#000000;stroke-width:0.20464085;stroke-linecap:round;stroke-linejoin:miter;stroke-miterlimit:4;stroke-dasharray:none;stroke-dashoffset:0;stroke-opacity:1;marker:none" />
        <path
           inkscape:connector-curvature="0"
           d="m 110.45494,24.24301 2.85537,-1.49004 -2.76905,0.41568 c -0.0458,0.107 -0.14525,0.19657 -0.19504,0.34853 -0.0249,0.076 -0.0396,0.16688 -0.0256,0.28458 0.0141,0.11769 0.0547,0.26152 0.1343,0.44125 z"
           id="path4106-3"
           style="color:#000000;display:inline;overflow:visible;visibility:visible;fill:#ffffff;fill-opacity:1;fill-rule:nonzero;stroke:#000000;stroke-width:0.20464085;stroke-linecap:round;stroke-linejoin:miter;stroke-miterlimit:4;stroke-dasharray:none;stroke-dashoffset:0;stroke-opacity:1;marker:none" />
        <path
           inkscape:connector-curvature="0"
           d="m 110.44534,8.03162 c -0.0519,-0.0445 -0.11047,-0.0854 -0.14709,-0.14069 -0.0574,-0.0867 -0.0961,-0.18481 -0.1215,-0.29417 -0.0254,-0.10936 -0.0349,-0.2309 -0.0352,-0.35812 0,-0.12722 0.007,-0.25944 0.0256,-0.39969 0.0128,-0.0992 0.0417,-0.20968 0.0608,-0.31336 l -1.76503,1.02321 -0.55316,0.88571 1.74264,0.6395 z"
           id="path4120-8"
           style="color:#000000;display:inline;overflow:visible;visibility:visible;fill:#ffffff;fill-opacity:1;fill-rule:nonzero;stroke:#000000;stroke-width:0.20464085;stroke-linecap:round;stroke-linejoin:miter;stroke-miterlimit:4;stroke-dasharray:none;stroke-dashoffset:0;stroke-opacity:1;marker:none" />
        <path
           inkscape:connector-curvature="0"
           d="m 110.44534,8.03162 2.22547,-2.91933 -2.4429,1.4133 c -0.0191,0.10368 -0.0479,0.21414 -0.0608,0.31336 -0.0181,0.14025 -0.0258,0.27247 -0.0256,0.39969 0,0.12722 0.01,0.24876 0.0352,0.35812 0.0254,0.10936 0.0641,0.20748 0.1215,0.29417 0.0366,0.0553 0.0952,0.0962 0.14709,0.14069 z"
           id="path4122-0"
           style="color:#000000;display:inline;overflow:visible;visibility:visible;fill:#ffffff;fill-opacity:1;fill-rule:nonzero;stroke:#000000;stroke-width:0.20464085;stroke-linecap:round;stroke-linejoin:miter;stroke-miterlimit:4;stroke-dasharray:none;stroke-dashoffset:0;stroke-opacity:1;marker:none" />
        <path
           inkscape:connector-curvature="0"
           d="m 110.53487,1.80606 c -0.0912,-0.0848 -0.16631,-0.16687 -0.22702,-0.24621 -0.0607,-0.0793 -0.10695,-0.15602 -0.14069,-0.23022 -0.0337,-0.0742 -0.0568,-0.14481 -0.0671,-0.21423 -0.0103,-0.0694 -0.01,-0.13644 0,-0.20144 0.0191,-0.13002 0.0761,-0.25319 0.15348,-0.36772 0.0773,-0.11452 0.17738,-0.22101 0.28458,-0.32295 l -8.19523,1.53801 c 0,0 -0.70795,0.38109 -0.47003,0.85693 0.24925,0.49851 0.7462,0.69386 0.94007,0.69386 0.16228,0 5.66257,-1.095 7.72199,-1.50603 z"
           id="path4124-1"
           style="color:#000000;display:inline;overflow:visible;visibility:visible;fill:#ffffff;fill-opacity:1;fill-rule:nonzero;stroke:#000000;stroke-width:0.20464085;stroke-linecap:round;stroke-linejoin:miter;stroke-miterlimit:4;stroke-dasharray:none;stroke-dashoffset:0;stroke-opacity:1;marker:none" />
        <path
           inkscape:connector-curvature="0"
           d="m 110.51568,48.86067 2.57081,0.47962 c 0,0 0.6396,-0.19323 0.80577,-0.71944 0.16618,-0.5262 -0.27818,-0.94007 -0.27818,-0.94007 l -2.07838,-0.39009 -0.53079,0.259 0,0.003 c 0.0179,0.10267 0.0426,0.21114 0.0575,0.32295 0.015,0.11181 0.0197,0.22508 0,0.33893 -0.0197,0.11386 -0.0642,0.22694 -0.15028,0.33574 -0.043,0.0544 -0.0943,0.10807 -0.15988,0.15988 -0.0656,0.0518 -0.14447,0.10196 -0.23662,0.15028 z"
           id="path4086-8"
           style="color:#000000;display:inline;overflow:visible;visibility:visible;fill:#ffffff;fill-opacity:1;fill-rule:nonzero;stroke:#000000;stroke-width:0.20464085;stroke-linecap:round;stroke-linejoin:miter;stroke-miterlimit:4;stroke-dasharray:none;stroke-dashoffset:0;stroke-opacity:1;marker:none" />
        <path
           inkscape:connector-curvature="0"
           d="m 110.45494,24.24301 c -0.0796,-0.17973 -0.12024,-0.32356 -0.1343,-0.44125 -0.0141,-0.1177 0.001,-0.2086 0.0256,-0.28458 0.0498,-0.15196 0.14921,-0.24153 0.19504,-0.34853 L 105,24 c 0,0 -0.6917,0.27854 -0.63631,0.86013 0.0554,0.5816 0.61073,0.94007 0.61073,0.94007 l 3.29344,-0.41568 z"
           id="path4104-6"
           style="color:#000000;display:inline;overflow:visible;visibility:visible;fill:#ffffff;fill-opacity:1;fill-rule:nonzero;stroke:#000000;stroke-width:0.20464085;stroke-linecap:round;stroke-linejoin:miter;stroke-miterlimit:4;stroke-dasharray:none;stroke-dashoffset:0;stroke-opacity:1;marker:none" />
        <path
           inkscape:connector-curvature="0"
           d="m 110.52847,72.43273 9.75882,0.55957 c 0,0 0.44445,-0.44259 0.44445,-0.88571 0,-0.44312 -0.66508,-0.94327 -0.66508,-0.94327 l -9.54777,-0.60113 c -0.12158,0.10387 -0.23243,0.23788 -0.31656,0.3901 -0.0421,0.0761 -0.075,0.15663 -0.10232,0.23981 -0.0274,0.0832 -0.0484,0.16888 -0.0576,0.2558 -0.009,0.0869 -0.006,0.17488 0.006,0.2622 0.0127,0.0873 0.0355,0.17462 0.0735,0.259 0.0381,0.0844 0.0897,0.16492 0.15668,0.24301 0.067,0.0781 0.14994,0.15217 0.2494,0.22062 z"
           id="path4066-6"
           style="color:#000000;display:inline;overflow:visible;visibility:visible;fill:#ffffff;fill-opacity:1;fill-rule:nonzero;stroke:#000000;stroke-width:0.20464085;stroke-linecap:round;stroke-linejoin:miter;stroke-miterlimit:4;stroke-dasharray:none;stroke-dashoffset:0;stroke-opacity:1;marker:none" />
        <path
           inkscape:connector-curvature="0"
           d="m 110.52847,20.28449 c 0.0898,-0.0629 0.16754,-0.12964 0.23343,-0.19824 0.0659,-0.0686 0.12047,-0.13845 0.16307,-0.21104 0.0426,-0.0726 0.0728,-0.149 0.0927,-0.22383 0.0199,-0.0748 0.0277,-0.1485 0.0256,-0.22382 -0.002,-0.0753 -0.0148,-0.15296 -0.0384,-0.22703 -0.0236,-0.0741 -0.0579,-0.14637 -0.10232,-0.21743 -0.0445,-0.0711 -0.0984,-0.13833 -0.16308,-0.20464 -0.0647,-0.0663 -0.13947,-0.13203 -0.22383,-0.19185 l -11.13693,0.34533 c 0,0 -0.33357,0.41696 -0.27819,0.777 0.0277,0.18002 0.14503,0.37233 0.2558,0.52119 0.11079,0.14886 0.21744,0.25261 0.21744,0.25261 z"
           id="path4108-1"
           style="color:#000000;display:inline;overflow:visible;visibility:visible;fill:#ffffff;fill-opacity:1;fill-rule:nonzero;stroke:#000000;stroke-width:0.20464085;stroke-linecap:round;stroke-linejoin:miter;stroke-miterlimit:4;stroke-dasharray:none;stroke-dashoffset:0;stroke-opacity:1;marker:none" />
        <path
           inkscape:connector-curvature="0"
           d="m 110.52847,62.28383 c -0.0665,-0.0515 -0.12532,-0.11107 -0.17266,-0.17587 -0.0473,-0.0648 -0.0826,-0.13385 -0.11191,-0.20783 -0.0293,-0.074 -0.0517,-0.15118 -0.0639,-0.23022 -0.0123,-0.0791 -0.0164,-0.15982 -0.0128,-0.23982 0.007,-0.16 0.0446,-0.31813 0.10872,-0.45724 0.0321,-0.0696 0.0704,-0.13369 0.11511,-0.19185 0.0447,-0.0582 0.0973,-0.11084 0.15348,-0.15348 l -9.03298,-0.15348 c 0,0 -0.49881,0.33171 -0.49881,0.71944 0,0.38773 0.33254,0.99762 0.33254,0.99762 z"
           id="path4072-2"
           style="color:#000000;display:inline;overflow:visible;visibility:visible;fill:#ffffff;fill-opacity:1;fill-rule:nonzero;stroke:#000000;stroke-width:0.20464085;stroke-linecap:round;stroke-linejoin:miter;stroke-miterlimit:4;stroke-dasharray:none;stroke-dashoffset:0;stroke-opacity:1;marker:none" />
        <path
           inkscape:connector-curvature="0"
           d="m 110.52847,81.51687 0,-0.0256 c -0.0948,-0.0331 -0.17828,-0.0801 -0.2494,-0.1343 -0.0711,-0.0542 -0.13161,-0.11538 -0.17906,-0.18545 -0.0474,-0.0701 -0.0817,-0.14636 -0.10551,-0.22702 -0.0238,-0.0807 -0.0349,-0.16661 -0.0352,-0.25261 0,-0.086 0.009,-0.17292 0.032,-0.259 0.0233,-0.0861 0.0587,-0.17172 0.10553,-0.2526 0.0468,-0.0809 0.10564,-0.15659 0.17585,-0.22702 0.0702,-0.0704 0.15259,-0.13393 0.24622,-0.18866 l -8.95304,-0.0703 c 0,0 -0.47004,0.24862 -0.47004,0.71944 0,0.47081 0.33254,0.88891 0.33254,0.88891 z"
           id="path2909-6-9"
           style="color:#000000;display:inline;overflow:visible;visibility:visible;fill:#ffffff;fill-opacity:1;fill-rule:nonzero;stroke:#000000;stroke-width:0.20464085;stroke-linecap:round;stroke-linejoin:miter;stroke-miterlimit:4;stroke-dasharray:none;stroke-dashoffset:0;stroke-opacity:1;marker:none" />
        <path
           inkscape:connector-curvature="0"
           d="m 110.51568,42.93248 c 0.18634,-0.2328 0.98032,-0.77479 0.0127,-1.5508 l -9.07134,-0.0991 c 0,0 -0.47323,0.4692 -0.47323,0.85693 0,0.38773 0.44445,0.86014 0.44445,0.86014 l 9.08733,-0.0672 z"
           id="path4088-3"
           style="color:#000000;display:inline;overflow:visible;visibility:visible;fill:#ffffff;fill-opacity:1;fill-rule:nonzero;stroke:#000000;stroke-width:0.20464085;stroke-linecap:round;stroke-linejoin:miter;stroke-miterlimit:4;stroke-dasharray:none;stroke-dashoffset:0;stroke-opacity:1;marker:none" />
        <path
           inkscape:connector-curvature="0"
           d="m 110.96654,-2.71522 -1.06478,-0.9017 1.06158,-0.98483 -11.5718,-0.18546 c 0,0 -0.42829,0.74671 -0.1375,1.77142 z"
           id="path4128-4"
           style="color:#000000;display:inline;overflow:visible;visibility:visible;fill:#ffffff;fill-opacity:1;fill-rule:nonzero;stroke:#000000;stroke-width:0.20464085;stroke-linecap:round;stroke-linejoin:miter;stroke-miterlimit:4;stroke-dasharray:none;stroke-dashoffset:0;stroke-opacity:1;marker:none" />
        <path
           inkscape:connector-curvature="0"
           d="m 110.53487,15.67368 -1.11913,-0.86973 1.24064,-0.85373 -9.50621,-0.72264 c -0.5539,0.24926 -1.43888,1.65951 -1.43888,1.65951 z"
           id="path4112-0"
           style="color:#000000;display:inline;overflow:visible;visibility:visible;fill:#ffffff;fill-opacity:1;fill-rule:nonzero;stroke:#000000;stroke-width:0.20464085;stroke-linecap:round;stroke-linejoin:miter;stroke-miterlimit:4;stroke-dasharray:none;stroke-dashoffset:0;stroke-opacity:1;marker:none" />
        <path
           inkscape:connector-curvature="0"
           d="m 110.48052,57.74656 -0.89851,-0.79618 0.93688,-0.86653 -11.43112,-0.0959 c -0.20207,0.27388 -0.50195,0.76432 -0.66188,1.4197 4.01749,0.12768 8.03596,0.22753 12.05463,0.33894 z"
           id="path4076-7"
           style="color:#000000;display:inline;overflow:visible;visibility:visible;fill:#ffffff;fill-opacity:1;fill-rule:nonzero;stroke:#000000;stroke-width:0.20464085;stroke-linecap:round;stroke-linejoin:miter;stroke-miterlimit:4;stroke-dasharray:none;stroke-dashoffset:0;stroke-opacity:1;marker:none" />
        <path
           inkscape:connector-curvature="0"
           d="m 110.53168,68.05854 2.72108,0.39329 c 0,0 0.777,-0.1676 0.777,-0.61072 0,-0.44312 -0.44446,-0.94007 -0.44446,-0.94007 l -1.51242,-0.23982 -0.83456,0.39969 z"
           id="path4070-6"
           style="color:#000000;display:inline;overflow:visible;visibility:visible;fill:#ffffff;fill-opacity:1;fill-rule:nonzero;stroke:#000000;stroke-width:0.20464085;stroke-linecap:round;stroke-linejoin:miter;stroke-miterlimit:4;stroke-dasharray:none;stroke-dashoffset:0;stroke-opacity:1;marker:none" />
        <path
           inkscape:connector-curvature="0"
           d="m 110.52847,76.91245 10.1649,0.259 c 0.7217,-0.4099 1.25683,-0.73883 1.4101,-0.89211 0,0 0.29569,-0.27875 0.518,-0.761 l -12.093,-0.34534 0.84735,0.89211 -0.84735,0.84095 z"
           id="path4062-1"
           style="color:#000000;display:inline;overflow:visible;visibility:visible;fill:#ffffff;fill-opacity:1;fill-rule:nonzero;stroke:#000000;stroke-width:0.20464085;stroke-linecap:round;stroke-linejoin:miter;stroke-miterlimit:4;stroke-dasharray:none;stroke-dashoffset:0;stroke-opacity:1;marker:none" />
        <path
           inkscape:connector-curvature="0"
           d="m 99.1933,36.62059 c -0.55629,0.77483 -0.72904,1.538 -0.72904,1.538 l 4.8922,0.13749 3.0888,0.0863 0,0.006 4.07042,0.11831 0,-0.003 -1.09994,-0.86013 1.14791,-0.7802 -0.76101,-0.016 -3.36059,-0.0703 -1.94409,-0.0416 -5.30466,-0.11511 z"
           id="path4092-5"
           style="color:#000000;display:inline;overflow:visible;visibility:visible;fill:#ffffff;fill-opacity:1;fill-rule:nonzero;stroke:#000000;stroke-width:0.20464085;stroke-linecap:round;stroke-linejoin:miter;stroke-miterlimit:4;stroke-dasharray:none;stroke-dashoffset:0;stroke-opacity:1;marker:none" />
        <path
           inkscape:connector-curvature="0"
           d="m 110.56684,9.13796 1.15431,1.27581 -1.09355,0.6459 5.95057,2.02722 c 0,0 0.97003,0.0285 1.16389,-0.47004 0.19387,-0.49851 -0.39009,-1.0232 -0.39009,-1.0232 z"
           id="path4118-4"
           style="color:#000000;display:inline;overflow:visible;visibility:visible;fill:#ffffff;fill-opacity:1;fill-rule:nonzero;stroke:#000000;stroke-width:0.20464085;stroke-linecap:round;stroke-linejoin:miter;stroke-miterlimit:4;stroke-dasharray:none;stroke-dashoffset:0;stroke-opacity:1;marker:none" />
        <path
           inkscape:connector-curvature="0"
           d="m 110.56684,33.99223 9.52859,0.50521 c 0,0 0.38691,-0.41706 0.38691,-0.94327 0,-0.5262 -0.74822,-0.99762 -0.74822,-0.99762 l -9.19286,-0.5212 1.14792,1.00402 -1.12234,0.94966 0,0.003 z"
           id="path4098-2"
           style="color:#000000;display:inline;overflow:visible;visibility:visible;fill:#ffffff;fill-opacity:1;fill-rule:nonzero;stroke:#000000;stroke-width:0.20464085;stroke-linecap:round;stroke-linejoin:miter;stroke-miterlimit:4;stroke-dasharray:none;stroke-dashoffset:0;stroke-opacity:1;marker:none" />
        <path
           inkscape:connector-curvature="0"
           d="m 110.50929,53.22208 9.61172,0.52119 c 0,0 0.44446,-0.35946 0.44446,-0.80258 0,-0.44312 -0.58194,-0.88571 -0.58194,-0.88571 l -9.44866,-0.58194 0.86014,0.90169 z"
           id="path4082-0"
           style="color:#000000;display:inline;overflow:visible;visibility:visible;fill:#ffffff;fill-opacity:1;fill-rule:nonzero;stroke:#000000;stroke-width:0.20464085;stroke-linecap:round;stroke-linejoin:miter;stroke-miterlimit:4;stroke-dasharray:none;stroke-dashoffset:0;stroke-opacity:1;marker:none" />
        <path
           inkscape:connector-curvature="0"
           d="m 110.53487,15.67368 11.33199,0.82176 c 0,0 0.36132,-0.4149 0.36132,-0.88571 0,-0.47082 -0.30696,-0.80578 -0.30696,-0.80578 l -11.26484,-0.85373 -1.24064,0.85373 z"
           id="path4114-3"
           style="color:#000000;display:inline;overflow:visible;visibility:visible;fill:#ffffff;fill-opacity:1;fill-rule:nonzero;stroke:#000000;stroke-width:0.20464085;stroke-linecap:round;stroke-linejoin:miter;stroke-miterlimit:4;stroke-dasharray:none;stroke-dashoffset:0;stroke-opacity:1;marker:none" />
        <path
           inkscape:connector-curvature="0"
           d="m 110.50929,53.22208 0.88572,-0.84735 -0.86014,-0.90169 -6.30869,-0.3869 c -0.30465,0.0277 -2.41092,1.6627 -2.41092,1.6627 z"
           id="path4080-6"
           style="color:#000000;display:inline;overflow:visible;visibility:visible;fill:#ffffff;fill-opacity:1;fill-rule:nonzero;stroke:#000000;stroke-width:0.20464085;stroke-linecap:round;stroke-linejoin:miter;stroke-miterlimit:4;stroke-dasharray:none;stroke-dashoffset:0;stroke-opacity:1;marker:none" />
        <path
           inkscape:connector-curvature="0"
           d="m 110.53168,68.05854 0.70664,-0.99763 -1.76502,0.84415 z"
           id="path4068-0"
           style="color:#000000;display:inline;overflow:visible;visibility:visible;fill:#ffffff;fill-opacity:1;fill-rule:nonzero;stroke:#000000;stroke-width:0.20464085;stroke-linecap:round;stroke-linejoin:miter;stroke-miterlimit:4;stroke-dasharray:none;stroke-dashoffset:0;stroke-opacity:1;marker:none" />
        <path
           inkscape:connector-curvature="0"
           d="m 110.6244,11.05967 0.003,0 1.09355,-0.6459 -1.1543,-1.27581 -2.93531,-1.06157 -1.9377,1.30138 4.93057,1.6819 z"
           id="path4116-1"
           style="color:#000000;display:inline;overflow:visible;visibility:visible;fill:#ffffff;fill-opacity:1;fill-rule:nonzero;stroke:#000000;stroke-width:0.20464085;stroke-linecap:round;stroke-linejoin:miter;stroke-miterlimit:4;stroke-dasharray:none;stroke-dashoffset:0;stroke-opacity:1;marker:none" />
        <path
           inkscape:connector-curvature="0"
           d="m 110.56365,36.8636 -1.14791,0.78019 1.09994,0.86013 0,0.003 2.37576,0.0671 3.2231,0.0927 3.22309,0.0927 c 0.70457,-0.3209 1.17135,-0.54536 1.51242,-0.73223 0.0569,-0.0312 0.11258,-0.06 0.16308,-0.0895 0.20173,-0.11795 0.3548,-0.22492 0.49561,-0.33894 0.1056,-0.0855 0.20562,-0.17656 0.31016,-0.27818 0.0697,-0.0677 0.14086,-0.13991 0.22062,-0.22063 l -3.89776,-0.0831 -3.90097,-0.0799 -0.003,0.003 -3.67395,-0.0767 z"
           id="path4094-6"
           style="color:#000000;display:inline;overflow:visible;visibility:visible;fill:#ffffff;fill-opacity:1;fill-rule:nonzero;stroke:#000000;stroke-width:0.20464085;stroke-linecap:round;stroke-linejoin:miter;stroke-miterlimit:4;stroke-dasharray:none;stroke-dashoffset:0;stroke-opacity:1;marker:none" />
        <path
           inkscape:connector-curvature="0"
           d="m 110.52847,76.91245 0,-0.006 0.84735,-0.84095 -0.84735,-0.89211 -11.13693,-0.31975 c 0,0 -0.60678,0.67118 -0.84734,1.75224 z"
           id="path4060-5"
           style="color:#000000;display:inline;overflow:visible;visibility:visible;fill:#ffffff;fill-opacity:1;fill-rule:nonzero;stroke:#000000;stroke-width:0.20464085;stroke-linecap:round;stroke-linejoin:miter;stroke-miterlimit:4;stroke-dasharray:none;stroke-dashoffset:0;stroke-opacity:1;marker:none" />
        <path
           inkscape:connector-curvature="0"
           d="m 110.96654,-2.71522 8.94344,0.23022 c 0,0 2.22464,-1.0269 3.37018,-1.92171 l -12.31682,-0.19504 -1.06158,0.98483 z"
           id="path4130-7"
           style="color:#000000;display:inline;overflow:visible;visibility:visible;fill:#ffffff;fill-opacity:1;fill-rule:nonzero;stroke:#000000;stroke-width:0.20464085;stroke-linecap:round;stroke-linejoin:miter;stroke-miterlimit:4;stroke-dasharray:none;stroke-dashoffset:0;stroke-opacity:1;marker:none" />
      </g>
    </g>
    <circle
       style="display:inline;fill:none;stroke:#333333;stroke-width:0.80000001;stroke-linecap:round;stroke-linejoin:round;stroke-miterlimit:4;stroke-dasharray:none;stroke-opacity:1"
       id="path4579"
       cx="19.754612"
       cy="8.6674786"
       r="2.5" />
    <circle
       style="display:inline;fill:none;stroke:#333333;stroke-width:0.80000001;stroke-linecap:round;stroke-linejoin:round;stroke-miterlimit:4;stroke-dasharray:none;stroke-opacity:1"
       id="path4581"
       cx="24.245388"
       cy="13.332521"
       r="2" />
    <circle
       style="display:inline;fill:none;stroke:#333333;stroke-width:0.80000001;stroke-linecap:round;stroke-linejoin:round;stroke-miterlimit:4;stroke-dasharray:none;stroke-opacity:1"
       id="path4583"
       cx="19.272556"
       cy="13.764093"
       r="1" />
  </g>
</svg>
